<svg width="39" height="42" viewBox="0 0 39 42" fill="none" xmlns="http://www.w3.org/2000/svg">
<path d="M1 11.9705L0.745635 11.54L0.5 11.6852V11.9705H1ZM1 26.789H0.5V27.0818L0.755374 27.2251L1 26.789ZM13.1512 33.6055L12.9065 34.0416L13.1402 34.1727L13.3787 34.0507L13.1512 33.6055ZM26.4878 26.789L26.7154 27.2342L26.9878 27.095V26.789H26.4878ZM26.4878 11.9705H26.9878V11.692L26.751 11.5454L26.4878 11.9705ZM14.0403 4.26489L14.3035 3.83976L14.0463 3.68057L13.7859 3.83443L14.0403 4.26489ZM0.5 11.9705V26.789H1.5V11.9705H0.5ZM0.755374 27.2251L12.9065 34.0416L13.3958 33.1694L1.24463 26.3529L0.755374 27.2251ZM13.3787 34.0507L26.7154 27.2342L26.2603 26.3438L12.9236 33.1603L13.3787 34.0507ZM26.9878 26.789V11.9705H25.9878V26.789H26.9878ZM26.751 11.5454L14.3035 3.83976L13.7771 4.69003L26.2246 12.3956L26.751 11.5454ZM13.7859 3.83443L0.745635 11.54L1.25436 12.401L14.2946 4.69536L13.7859 3.83443ZM0.74741 12.402L12.8986 19.5149L13.4038 18.6519L1.25259 11.539L0.74741 12.402ZM12.6512 19.0834V33.6055H13.6512V19.0834H12.6512ZM13.3865 19.5246L26.7231 12.4117L26.2525 11.5293L12.9159 18.6422L13.3865 19.5246Z" fill="#282626"/>
<path d="M20.3552 1.97412L28.9151 7.09091" stroke="#282626" stroke-width="0.5"/>
<path d="M20.9254 3.38511L18.9123 0.928101L21.4521 1.59014L20.9254 3.38511Z" fill="#282626"/>
<path d="M28.5992 6.02235L30.6676 8.40137L28.1165 7.83982L28.5992 6.02235Z" fill="#282626"/>
<path d="M31.7055 13.714L31.5453 23.6854" stroke="#282626" stroke-width="0.5"/>
<path d="M30.7675 14.9124L31.8914 11.9415L32.5857 14.4727L30.7675 14.9124Z" fill="#282626"/>
<path d="M32.3135 22.8781L31.2848 25.858L30.4977 23.3672L32.3135 22.8781Z" fill="#282626"/>
<path d="M31.6492 31.894L22.7501 36.3951" stroke="#282626" stroke-width="0.5"/>
<path d="M30.1517 31.6221L33.3042 31.2335L31.3875 33.0265L30.1517 31.6221Z" fill="#282626"/>
<path d="M23.822 36.6992L20.7059 37.1763L22.5437 35.32L23.822 36.6992Z" fill="#282626"/>
</svg>
